<svg xmlns="http://www.w3.org/2000/svg" width="100%" height="100%" xmlns:xlink="http://www.w3.org/1999/xlink" viewBox="0 0 940 520" preserveAspectRatio="xMinYMin meet" ><rect id="svgEditorBackground" x="0" y="0" width="940" height="520" style="fill: none; stroke: none;"/><path d="M1.977,119.62h196.73" style="fill:none;stroke:white;stroke-width:2px" id="e9_pathH"/><line id="e10_line" x1="197.719" y1="119.62" x2="229.354" y2="137.414" style="stroke:white;fill:none;stroke-width:2px"/><path d="M228.365,137.414h278.783" style="fill:none;stroke:white;stroke-width:2px" id="e12_pathH"/><line id="e13_line" x1="506.16" y1="137.414" x2="543.726" y2="111.711" style="stroke:white;fill:none;stroke-width:3px"/><path d="M541.749,111.711h296.578" style="fill:none;stroke:white;stroke-width:2px" id="e15_pathH" transform="matrix(0.479, 0, 0, 1, 283.883, 1.23804e-06)"/><path d="M344.030648,170.037869h234.297" style="fill:none;stroke:white;stroke-width:2px" id="e17_pathH"/><line id="e18_line" x1="577.338" y1="170.038" x2="612.928" y2="192.776" style="stroke:white;fill:none;stroke-width:2px"/><path d="M612.928,192.776h197.719" style="fill:none;stroke:white;stroke-width:2px" id="e20_pathH"/><path d="M0,345.019h72.167" style="fill:none;stroke:white;stroke-width:3px" id="e22_pathH"/><line id="e23_line" x1="71.179" y1="345.019" x2="104.791" y2="320.304" style="stroke:white;fill:none;stroke-width:2px"/><path d="M103.802,319.316h152.243" style="fill:none;stroke:white;stroke-width:2px" id="e25_pathH" transform="matrix(1, 0, 0, 1, 0.989071, 0.989071)"/><line id="e26_line" x1="257.034" y1="320.304" x2="279.272" y2="341.065" style="stroke:white;fill:none;stroke-width:2px"/><path d="M279.778,340.914h152.812" style="fill:none;stroke:white;stroke-width:2px" id="e30_pathH"/><line id="e31_line" x1="431.789" y1="341.067" x2="457.505" y2="359.365" style="stroke:white;fill:none;stroke-width:2px"/><path d="M457.01,359.365v80.115" style="fill:none;stroke:white;stroke-width:3px" id="e33_pathV"/><path d="M441.584,368.761v95.94" style="fill:none;stroke:white;stroke-width:2px" id="e35_pathV"/><line id="e36_line" x1="441.584" y1="463.712" x2="461.365" y2="482.504" style="stroke:white;fill:none;stroke-width:2px"/><path d="M461.365,481.515h190.891" style="fill:none;stroke:white;stroke-width:2px" id="e38_pathH"/><line id="e39_line" x1="652.256" y1="480.526" x2="680.939" y2="454.81" style="stroke:white;fill:none;stroke-width:2px"/><path d="M680.939,454.81h169.131" style="fill:none;stroke:white;stroke-width:2px" id="e41_pathH"/><path d="M505.87328092956545,369.7507165584564h179.022" style="fill:none;stroke:white;stroke-width:3px" id="e43_pathH" transform="matrix(1, 0, 0, 1, -3.95629, 0)"/><line id="e44_line" x1="682.917" y1="365.794" x2="736.327" y2="291.614" style="stroke:white;fill:none;stroke-width:2px" transform="matrix(1.05248, 0, 0, 1.05248, -39.1609, -14.7846)"/><path d="M736.327,292.603h142.426" style="fill:none;stroke:white;stroke-width:2px" id="e46_pathH"/></svg>