<svg xmlns="http://www.w3.org/2000/svg" width="100%" height="100%" xmlns:xlink="http://www.w3.org/1999/xlink" viewBox="0 0 940 520" preserveAspectRatio="xMinYMin meet" ><rect id="svgEditorBackground" x="0" y="0" width="940" height="520" style="fill: black; stroke: none;"/><line id="e31_line" x1="432.463" y1="341.741" x2="458.179" y2="360.039" style="stroke:white;fill:none;stroke-width:2px" transform="matrix(2.93556, 0, 0, 2.93556, -1244.2, -969.745)"/><path d="M457.01,359.365v80.115" style="fill:none;stroke:white;stroke-width:3px" id="e33_pathV" transform="matrix(2.93556, 0, 0, 2.93556, -1244.2, -969.745)"/><path d="M441.584,368.761v95.94" style="fill:none;stroke:white;stroke-width:2px" id="e35_pathV" transform="matrix(2.93556, 0, 0, 2.93556, -1244.2, -969.745)"/><path d="M468.96544502492617,492.0838650249262h194.848895" style="fill:none;stroke:white;stroke-width:2px" id="e38_pathH" transform="matrix(2.93556, 0, 0, 2.93556, -1244.2, -969.745)"/><path d="M457.01,359.365v80.115" style="fill:none;stroke:white;stroke-width:3px" id="e11_pathV" transform="matrix(2.93556, 0, 0, 2.93556, -1244.2, -969.745)"/><path d="M457.01,359.365v80.115" style="fill:none;stroke:white;stroke-width:3px" id="e19_pathV" transform="matrix(2.93556, 0, 0, 2.93556, -1244.2, -969.745)"/><path d="M457.01,359.365v80.115" style="fill:none;stroke:white;stroke-width:3px" id="e24_pathV" transform="matrix(2.93556, 0, 0, 2.93556, -1244.2, -969.745)"/><line id="e3_line" x1="441.269" y1="463.712" x2="469.955" y2="492.399" style="stroke:white;fill:none;stroke-width:2px" transform="matrix(2.93556, 0, 0, 2.93556, -1244.2, -969.745)"/><line id="e1_line" x1="664.284" y1="491.073" x2="695.177" y2="451.193" style="stroke: white; stroke-width: 1.94px;" transform="matrix(2.66459, 0, 0, 2.66459, -1068.58, -831.394)"/><line id="e2_line" x1="444.305" y1="469.107" x2="469.621" y2="494.087" style="stroke:white;fill:none;stroke-width:2px" transform="matrix(2.93556, 0, 0, 2.93556, -1244.2, -969.745)"/><path d="M465.66496534354917,493.76975934722424h194.848895" style="fill:none;stroke:white;stroke-width:2px" id="e2_pathH" transform="matrix(1.52311, 0, 0, 2.93556, -576.939, -969.745)"/></svg>